<?xml version="1.0" encoding="UTF-8"?>
<!DOCTYPE svg PUBLIC "-//W3C//DTD SVG 1.1//EN" "http://www.w3.org/Graphics/SVG/1.1/DTD/svg11.dtd">
<!-- Creator: CorelDRAW 2019 (64-Bit) -->
<svg xmlns="http://www.w3.org/2000/svg" xml:space="preserve" width="26.0613mm" height="55.1011mm" version="1.1" style="shape-rendering:geometricPrecision; text-rendering:geometricPrecision; image-rendering:optimizeQuality; fill-rule:evenodd; clip-rule:evenodd"
viewBox="0 0 421.68 891.55"
 xmlns:xlink="http://www.w3.org/1999/xlink">
 <defs>
  <style type="text/css">
   <![CDATA[
    .str1 {stroke:black;stroke-width:8.56;stroke-miterlimit:22.9256}
    .str0 {stroke:black;stroke-width:3.24;stroke-miterlimit:22.9256}
    .str2 {stroke:#E6E6E6;stroke-width:3.24;stroke-miterlimit:22.9256}
    .fil2 {fill:none}
    .fil0 {fill:black}
    .fil1 {fill:#E6E6E6}
    .fil3 {fill:red;fill-rule:nonzero}
   ]]>
  </style>
 </defs>
 <g id="Capa_x0020_1">
  <metadata id="CorelCorpID_0Corel-Layer"/>
  <rect class="fil0 str0" x="166.95" y="1.62" width="87.77" height="888.31"/>
  <rect class="fil1 str0" x="1.62" y="33.75" width="418.44" height="836.88"/>
  <polyline class="fil2 str1" points="210.6,85.63 53.54,111.72 367.66,163.9 210.6,189.98 "/>
  <line class="fil2 str1" x1="210.6" y1="85.63" x2="210.6" y2= "33.75" />
  <polyline class="fil2 str1" points="210.6,189.98 53.54,216.07 367.66,268.25 210.6,294.34 "/>
  <polyline class="fil2 str1" points="210.6,503.04 53.54,529.12 367.66,581.3 210.6,607.39 "/>
  <polyline class="fil2 str1" points="210.6,607.39 53.54,633.47 367.66,685.65 210.6,711.74 "/>
  <polyline class="fil2 str1" points="210.6,711.74 53.54,737.83 367.66,790 210.6,816.09 "/>
  <line class="fil2 str1" x1="210.6" y1="816.09" x2="210.84" y2= "870.63" />
  <polyline class="fil2 str1" points="210.6,294.34 53.54,320.42 367.66,372.6 210.6,398.69 "/>
  <polyline class="fil2 str1" points="210.6,398.69 53.54,424.77 367.66,476.95 210.6,503.04 "/>
  <rect class="fil1 str2" x="142.14" y="260.7" width="136.93" height="380.33"/>
  <path class="fil3" d="M255.34 608.91l-98.09 0 0 -31.76c0,-12.03 0.5,-19.86 1.46,-23.52 1.48,-5.62 4.68,-10.32 9.61,-14.11 4.93,-3.79 11.3,-5.68 19.11,-5.68 6.03,0 11.07,1.1 15.18,3.27 4.11,2.19 7.33,4.95 9.68,8.31 2.33,3.36 3.88,6.78 4.64,10.25 0.94,4.73 1.42,11.55 1.42,20.5l0 12.88 36.99 0 0 19.86zm-81.51 -19.86l27.95 0 0 -10.8c0,-7.79 -0.52,-12.97 -1.55,-15.59 -1.03,-2.63 -2.63,-4.68 -4.84,-6.16 -2.19,-1.48 -4.73,-2.24 -7.65,-2.24 -3.59,0 -6.53,1.05 -8.86,3.13 -2.33,2.1 -3.79,4.73 -4.38,7.95 -0.43,2.35 -0.66,7.08 -0.66,14.2l0 9.52z"/>
  <path id="1" class="fil3" d="M200.96 521.93l-17.4 0 0 -68.63 17.4 0 0 68.63zm29.73 0l-17.4 0 0 -68.63 17.4 0 0 68.63z"/>
  <path id="2" class="fil3" d="M205.34 375.75l3.29 18.5c-3.68,0.62 -6.44,2.03 -8.31,4.25 -1.85,2.22 -2.78,5.07 -2.78,8.59 0,4.68 1.62,8.43 4.86,11.21 3.24,2.78 8.65,4.18 16.26,4.18 8.45,0 14.41,-1.42 17.9,-4.25 3.49,-2.83 5.23,-6.62 5.23,-11.37 0,-3.56 -1.03,-6.49 -3.06,-8.75 -2.03,-2.28 -5.53,-3.88 -10.5,-4.82l3.15 -18.49c8.49,1.92 14.91,5.59 19.25,11.03 4.34,5.43 6.51,12.72 6.51,21.87 0,10.37 -3.29,18.65 -9.84,24.82 -6.58,6.19 -15.66,9.27 -27.28,9.27 -11.76,0 -20.89,-3.1 -27.44,-9.29 -6.55,-6.19 -9.82,-14.57 -9.82,-25.14 0,-8.63 1.87,-15.5 5.6,-20.62 3.72,-5.09 9.38,-8.75 17.01,-10.98z"/>
  <path id="3" class="fil3" d="M184.25 329.02l14.93 0 0 12.88 28.79 0c5.84,0 9.25,-0.11 10.2,-0.37 0.96,-0.25 1.76,-0.8 2.4,-1.69 0.62,-0.87 0.94,-1.92 0.94,-3.17 0,-1.76 -0.59,-4.27 -1.8,-7.58l14.61 -1.57c1.87,4.36 2.81,9.29 2.81,14.82 0,3.38 -0.57,6.42 -1.71,9.13 -1.14,2.72 -2.62,4.7 -4.43,5.96 -1.83,1.28 -4.27,2.15 -7.37,2.65 -2.19,0.39 -6.62,0.59 -13.31,0.59l-31.12 0 0 8.63 -14.93 0 0 -8.63 -14.11 0 -11.1 -18.77 25.21 0 0 -12.88z"/>
  <polygon id="4" class="fil3" points="255.34,316 236.58,316 236.58,297.23 255.34,297.23 "/>
 </g>
</svg>
