<?xml version="1.0" encoding="UTF-8"?>
<!DOCTYPE svg PUBLIC "-//W3C//DTD SVG 1.1//EN" "http://www.w3.org/Graphics/SVG/1.1/DTD/svg11.dtd">
<!-- Creator: CorelDRAW 2019 (64-Bit) -->
<svg xmlns="http://www.w3.org/2000/svg" xml:space="preserve" width="31.3183mm" height="59.7125mm" version="1.1" style="shape-rendering:geometricPrecision; text-rendering:geometricPrecision; image-rendering:optimizeQuality; fill-rule:evenodd; clip-rule:evenodd"
viewBox="0 0 3364.67 6415.2"
 xmlns:xlink="http://www.w3.org/1999/xlink">
 <defs>
  <style type="text/css">
   <![CDATA[
    .str0 {stroke:black;stroke-width:21.49;stroke-miterlimit:22.9256}
    .fil0 {fill:black}
    .fil1 {fill:#E6E6E6}
    .fil2 {fill:black;fill-rule:nonzero}
   ]]>
  </style>
 </defs>
 <g id="Capa_x0020_1">
  <metadata id="CorelCorpID_0Corel-Layer"/>
  <rect class="fil0 str0" transform="matrix(2.64845E-14 -1 0.543444 1.43929E-14 10.7434 1392.43)" width="71.07" height="6099.56"/>
  <rect class="fil0 str0" x="1597.05" y="10.74" width="71.07" height="6393.71"/>
  <rect class="fil0 str0" transform="matrix(2.64845E-14 -1 0.543444 1.43929E-14 39.1598 5523.55)" width="71.07" height="6099.56"/>
  <rect class="fil1 str0" x="278.93" y="449.99" width="2778.4" height="5556.8"/>
  <path class="fil2" d="M1546.1 5452.47l0 -298.06c0,-25.92 -1.68,-43.66 -4.86,-53.36 -3.33,-9.55 -7.74,-16.52 -13.19,-20.77 -5.46,-4.09 -12.12,-6.21 -19.85,-6.21 -10.31,0 -19.4,4.24 -27.14,12.88 -7.58,8.64 -13.64,26.53 -17.74,53.51l-18.19 0c4.69,-38.96 15.31,-66.71 31.53,-82.93 16.37,-16.21 37.29,-24.4 63.06,-24.4 24.56,0 43.51,6.97 56.55,21.07 12.88,14.1 20.47,40.02 22.58,77.77 38.2,-43.06 67.77,-70.35 88.69,-81.71 20.77,-11.37 42.3,-17.13 64.58,-17.13 27.9,0 50.64,6.82 68.68,20.47 17.89,13.64 29.87,31.22 36.08,52.6 6.22,21.53 9.4,59.28 9.4,113.25l0 269.85c0,44.88 1.06,76.56 3.03,95.21 2.13,18.64 6.52,40.17 13.34,64.43l-76.41 0c-6.52,-28.2 -10.3,-46.54 -11.52,-55.18 -2.58,-22.74 -3.94,-44.42 -3.94,-64.89l0 -325.95c0,-40.63 -3.64,-67.46 -11.07,-80.5 -12.74,-23.2 -32.6,-34.71 -59.88,-34.71 -18.35,0 -36.54,5.46 -54.73,16.21 -18.2,10.76 -40.18,30.93 -66.26,60.65l0 287.89 -72.77 0z"/>
  <path class="fil2" d="M1159.09 2014.1l0 -59.88c-29.86,46.54 -73.83,69.89 -131.89,69.89 -37.6,0 -72.16,-10.3 -103.55,-31.07 -31.53,-20.63 -55.94,-49.58 -73.38,-86.57 -17.29,-37.14 -25.92,-79.74 -25.92,-127.95 0,-46.99 7.89,-89.59 23.5,-127.95 15.77,-38.2 39.27,-67.61 70.65,-87.92 31.23,-20.47 66.41,-30.63 105.06,-30.63 28.5,0 53.82,6.07 75.96,18.05 22.13,11.98 40.17,27.74 54.11,46.99l0 -234.23 80.05 0 0 651.29 -74.59 0zm-252.87 -235.44c0,60.35 12.73,105.37 38.35,135.24 25.47,29.86 55.64,44.71 90.35,44.71 35.02,0 64.74,-14.25 89.3,-42.75 24.41,-28.5 36.69,-72.01 36.69,-130.53 0,-64.28 -12.43,-111.58 -37.45,-141.75 -24.86,-30.17 -55.63,-45.18 -92.17,-45.18 -35.63,0 -65.34,14.41 -89.3,43.36 -23.8,28.95 -35.78,74.59 -35.78,136.89z"/>
  <path id="1" class="fil2" d="M1668.63 2014.1l0 -70.19c-36.69,53.51 -86.41,80.19 -149.32,80.19 -27.75,0 -53.67,-5.31 -77.77,-15.91 -24.11,-10.76 -42,-24.11 -53.67,-40.18 -11.67,-16.22 -19.85,-35.93 -24.56,-59.27 -3.18,-15.77 -4.85,-40.63 -4.85,-74.59l0 -292.14 80.04 0 0 261.21c0,41.7 1.68,69.9 4.86,84.29 5.01,21.08 15.61,37.45 31.98,49.42 16.22,11.98 36.24,18.05 60.2,18.05 23.95,0 46.39,-6.07 67.31,-18.35 20.92,-12.28 35.78,-29.1 44.57,-50.18 8.64,-21.07 13.03,-51.85 13.03,-92.02l0 -252.42 80.05 0 0 472.09 -71.86 0z"/>
  <path id="2" class="fil2" d="M2039.91 1942.7l10.92 70.64c-22.43,4.71 -42.6,7.13 -60.18,7.13 -28.95,0 -51.39,-4.56 -67.46,-13.79 -15.92,-9.25 -27.14,-21.23 -33.66,-36.24 -6.52,-15.01 -9.7,-46.54 -9.7,-94.6l0 -271.98 -59.12 0 0 -61.85 59.12 0 0 -116.74 80.05 -48.06 0 164.79 80.04 0 0 61.85 -80.04 0 0 276.53c0,22.89 1.36,37.6 4.24,44.11 2.73,6.52 7.27,11.68 13.64,15.62 6.37,3.79 15.46,5.76 27.29,5.76 8.79,0 20.47,-1.06 34.86,-3.18z"/>
  <path id="3" class="fil2" d="M2115.25 2195.57l-9.09 -73.98c17.59,4.69 32.75,7.12 45.78,7.12 17.89,0 32.14,-3.03 42.76,-8.95 10.75,-5.91 19.55,-14.25 26.38,-24.86 5.01,-8.04 13.19,-27.89 24.41,-59.73 1.51,-4.39 3.79,-10.92 7.12,-19.55l-179.19 -473.6 85.5 0 98.55 272.58c12.88,34.41 24.25,70.8 34.41,109 9.25,-35.94 20.17,-71.41 32.9,-106.27l100.67 -275.31 79.89 0 -178.43 480.28c-19.26,51.7 -34.27,87.17 -45.03,106.73 -14.26,26.22 -30.63,45.49 -48.97,57.77 -18.5,12.28 -40.48,18.34 -65.95,18.34 -15.46,0 -32.75,-3.18 -51.7,-9.55z"/>
 </g>
</svg>
