<?xml version="1.0" encoding="UTF-8"?>
<!DOCTYPE svg PUBLIC "-//W3C//DTD SVG 1.1//EN" "http://www.w3.org/Graphics/SVG/1.1/DTD/svg11.dtd">
<!-- Creator: CorelDRAW 2019 (64-Bit) -->
<svg xmlns="http://www.w3.org/2000/svg" xml:space="preserve" width="31.3183mm" height="59.7125mm" version="1.1" style="shape-rendering:geometricPrecision; text-rendering:geometricPrecision; image-rendering:optimizeQuality; fill-rule:evenodd; clip-rule:evenodd"
viewBox="0 0 1472.1 2806.75"
 xmlns:xlink="http://www.w3.org/1999/xlink">
 <defs>
  <style type="text/css">
   <![CDATA[
    .str0 {stroke:black;stroke-width:9.4;stroke-miterlimit:22.9256}
    .fil0 {fill:black}
    .fil1 {fill:#E6E6E6}
    .fil2 {fill:black;fill-rule:nonzero}
   ]]>
  </style>
 </defs>
 <g id="Capa_x0020_1">
  <metadata id="CorelCorpID_0Corel-Layer"/>
  <rect class="fil0 str0" transform="matrix(2.64845E-14 -1 0.543444 1.43929E-14 4.70039 609.213)" width="31.09" height="2668.66"/>
  <rect class="fil0 str0" x="698.74" y="4.7" width="31.09" height="2797.35"/>
  <rect class="fil0 str0" transform="matrix(2.64845E-14 -1 0.543444 1.43929E-14 17.1331 2416.64)" width="31.09" height="2668.66"/>
  <rect class="fil1 str0" x="122.04" y="196.88" width="1215.6" height="2431.19"/>
  <path class="fil2" d="M676.45 2385.55l0 -130.4c0,-11.34 -0.73,-19.1 -2.12,-23.35 -1.46,-4.18 -3.38,-7.23 -5.77,-9.09 -2.39,-1.79 -5.3,-2.72 -8.69,-2.72 -4.51,0 -8.49,1.86 -11.87,5.64 -3.32,3.78 -5.97,11.61 -7.76,23.41l-7.96 0c2.05,-17.04 6.7,-29.19 13.8,-36.28 7.16,-7.09 16.32,-10.67 27.59,-10.67 10.75,0 19.04,3.05 24.74,9.22 5.64,6.17 8.95,17.51 9.88,34.03 16.71,-18.84 29.65,-30.78 38.8,-35.75 9.09,-4.97 18.51,-7.49 28.25,-7.49 12.21,0 22.16,2.98 30.05,8.95 7.83,5.97 13.07,13.66 15.78,23.01 2.72,9.42 4.11,25.94 4.11,49.55l0 118.07c0,19.63 0.47,33.5 1.33,41.66 0.93,8.16 2.85,17.57 5.84,28.19l-33.43 0c-2.85,-12.34 -4.51,-20.36 -5.04,-24.14 -1.13,-9.95 -1.73,-19.44 -1.73,-28.39l0 -142.61c0,-17.78 -1.59,-29.51 -4.84,-35.22 -5.57,-10.15 -14.26,-15.19 -26.2,-15.19 -8.03,0 -15.99,2.39 -23.94,7.09 -7.96,4.71 -17.58,13.53 -28.99,26.53l0 125.96 -31.84 0z"/>
  <path class="fil2" d="M507.12 881.2l0 -26.2c-13.06,20.36 -32.3,30.58 -57.7,30.58 -16.45,0 -31.57,-4.51 -45.3,-13.59 -13.8,-9.02 -24.48,-21.69 -32.1,-37.88 -7.56,-16.25 -11.34,-34.89 -11.34,-55.98 0,-20.56 3.45,-39.2 10.28,-55.98 6.9,-16.71 17.18,-29.58 30.91,-38.47 13.66,-8.95 29.05,-13.4 45.97,-13.4 12.47,0 23.55,2.66 33.23,7.9 9.68,5.24 17.57,12.14 23.68,20.56l0 -102.48 35.02 0 0 284.95 -32.64 0zm-110.63 -103.01c0,26.4 5.57,46.1 16.78,59.17 11.14,13.06 24.34,19.56 39.53,19.56 15.32,0 28.32,-6.23 39.07,-18.7 10.68,-12.47 16.05,-31.51 16.05,-57.11 0,-28.12 -5.44,-48.82 -16.39,-62.02 -10.88,-13.2 -24.34,-19.77 -40.33,-19.77 -15.59,0 -28.59,6.3 -39.07,18.97 -10.41,12.67 -15.65,32.64 -15.65,59.89z"/>
  <path id="1" class="fil2" d="M730.05 881.2l0 -30.71c-16.05,23.41 -37.81,35.08 -65.33,35.08 -12.14,0 -23.48,-2.32 -34.03,-6.96 -10.55,-4.71 -18.37,-10.55 -23.48,-17.58 -5.1,-7.1 -8.69,-15.72 -10.75,-25.93 -1.39,-6.9 -2.12,-17.78 -2.12,-32.64l0 -127.81 35.02 0 0 114.28c0,18.24 0.73,30.58 2.12,36.88 2.19,9.22 6.83,16.39 13.99,21.62 7.1,5.24 15.85,7.9 26.34,7.9 10.48,0 20.3,-2.66 29.45,-8.03 9.15,-5.37 15.65,-12.73 19.5,-21.96 3.78,-9.22 5.7,-22.68 5.7,-40.26l0 -110.44 35.02 0 0 206.55 -31.44 0z"/>
  <path id="2" class="fil2" d="M892.49 849.96l4.78 30.91c-9.81,2.06 -18.64,3.12 -26.33,3.12 -12.67,0 -22.48,-1.99 -29.51,-6.04 -6.97,-4.05 -11.87,-9.29 -14.73,-15.85 -2.85,-6.57 -4.24,-20.36 -4.24,-41.39l0 -119 -25.87 0 0 -27.06 25.87 0 0 -51.08 35.02 -21.03 0 72.1 35.02 0 0 27.06 -35.02 0 0 120.98c0,10.02 0.6,16.45 1.86,19.3 1.19,2.85 3.18,5.11 5.97,6.83 2.79,1.66 6.76,2.52 11.94,2.52 3.84,0 8.95,-0.47 15.25,-1.39z"/>
  <path id="3" class="fil2" d="M925.46 960.6l-3.98 -32.37c7.69,2.05 14.33,3.12 20.03,3.12 7.83,0 14.06,-1.33 18.71,-3.92 4.71,-2.59 8.55,-6.23 11.54,-10.88 2.19,-3.52 5.77,-12.2 10.68,-26.13 0.66,-1.92 1.66,-4.78 3.12,-8.55l-78.4 -207.21 37.41 0 43.12 119.26c5.64,15.06 10.61,30.98 15.06,47.69 4.05,-15.72 8.82,-31.24 14.39,-46.5l44.04 -120.45 34.95 0 -78.06 210.13c-8.43,22.62 -14.99,38.14 -19.7,46.69 -6.24,11.47 -13.4,19.9 -21.42,25.27 -8.09,5.37 -17.71,8.02 -28.86,8.02 -6.76,0 -14.33,-1.39 -22.62,-4.18z"/>
  <path class="fil2" d="M339.22 1496.3l0 -218.41 81.96 0c16.67,0 30.05,2.19 40.16,6.61 10.07,4.42 17.95,11.23 23.64,20.44 5.74,9.15 8.59,18.76 8.59,28.82 0,9.31 -2.54,18.1 -7.58,26.34 -5.03,8.24 -12.66,14.9 -22.88,19.98 13.22,3.86 23.38,10.47 30.45,19.83 7.12,9.3 10.67,20.33 10.67,33.04 0,10.27 -2.19,19.78 -6.51,28.57 -4.32,8.79 -9.66,15.56 -16.01,20.33 -6.35,4.73 -14.34,8.34 -23.9,10.78 -9.61,2.44 -21.35,3.66 -35.28,3.66l-83.33 0zm28.98 -126.59l47.23 0c12.81,0 22.01,-0.86 27.55,-2.54 7.37,-2.19 12.91,-5.84 16.63,-10.93 3.71,-5.09 5.59,-11.44 5.59,-19.12 0,-7.27 -1.73,-13.67 -5.24,-19.17 -3.45,-5.54 -8.44,-9.35 -14.9,-11.38 -6.45,-2.04 -17.54,-3.05 -33.2,-3.05l-43.67 0 0 66.19zm0 100.97l54.4 0c9.35,0 15.91,-0.36 19.72,-1.07 6.61,-1.17 12.2,-3.15 16.68,-5.95 4.47,-2.8 8.13,-6.86 11.03,-12.2 2.9,-5.34 4.32,-11.49 4.32,-18.45 0,-8.18 -2.08,-15.25 -6.3,-21.3 -4.17,-6.05 -9.96,-10.27 -17.39,-12.71 -7.37,-2.44 -18.05,-3.66 -31.93,-3.66l-50.53 0 0 75.35z"/>
  <path id="1" class="fil2" d="M643.96 1496.3l0 -23.54c-12.31,17.95 -28.98,26.9 -50.08,26.9 -9.3,0 -18,-1.78 -26.08,-5.34 -8.08,-3.61 -14.09,-8.08 -18,-13.47 -3.92,-5.44 -6.66,-12.05 -8.24,-19.88 -1.07,-5.29 -1.63,-13.63 -1.63,-25.02l0 -97.97 26.84 0 0 87.6c0,13.98 0.56,23.44 1.63,28.27 1.68,7.06 5.24,12.55 10.73,16.57 5.44,4.01 12.16,6.05 20.18,6.05 8.03,0 15.56,-2.04 22.58,-6.15 7.01,-4.12 12,-9.76 14.95,-16.83 2.9,-7.06 4.37,-17.39 4.37,-30.86l0 -84.65 26.84 0 0 158.32 -24.1 0z"/>
  <path id="2" class="fil2" d="M813.61 1438.34l26.23 3.66c-2.9,18.05 -10.22,32.13 -22.06,42.35 -11.85,10.22 -26.44,15.3 -43.67,15.3 -21.61,0 -38.99,-7.07 -52.11,-21.2 -13.17,-14.13 -19.72,-34.37 -19.72,-60.71 0,-17.08 2.85,-31.98 8.49,-44.79 5.65,-12.76 14.24,-22.37 25.83,-28.72 11.54,-6.4 24.09,-9.61 37.72,-9.61 17.13,0 31.22,4.32 42.1,13.02 10.93,8.7 17.95,21.05 21,37.01l-25.93 3.97c-2.49,-10.63 -6.87,-18.61 -13.22,-24 -6.3,-5.34 -13.93,-8.03 -22.88,-8.03 -13.52,0 -24.5,4.83 -32.99,14.49 -8.44,9.71 -12.66,24.96 -12.66,45.91 0,21.25 4.07,36.65 12.2,46.27 8.19,9.61 18.81,14.44 31.88,14.44 10.58,0 19.37,-3.2 26.38,-9.66 7.07,-6.41 11.54,-16.32 13.42,-29.69z"/>
  <polygon id="3" class="fil2" points="862.82,1496.3 862.82,1277.89 889.67,1277.89 889.67,1402.3 953.11,1337.99 987.78,1337.99 927.39,1396.81 993.89,1496.3 960.84,1496.3 908.27,1415.42 889.67,1433.51 889.67,1496.3 "/>
  <path id="4" class="fil2" d="M339.22 1837.08l0 -218.41 81.96 0c16.67,0 30.05,2.19 40.16,6.61 10.07,4.42 17.95,11.23 23.64,20.44 5.74,9.15 8.59,18.76 8.59,28.82 0,9.31 -2.54,18.1 -7.58,26.34 -5.03,8.24 -12.66,14.9 -22.88,19.98 13.22,3.86 23.38,10.47 30.45,19.83 7.12,9.3 10.67,20.33 10.67,33.04 0,10.27 -2.19,19.78 -6.51,28.57 -4.32,8.79 -9.66,15.56 -16.01,20.33 -6.35,4.73 -14.34,8.34 -23.9,10.78 -9.61,2.44 -21.35,3.66 -35.28,3.66l-83.33 0zm28.98 -126.59l47.23 0c12.81,0 22.01,-0.86 27.55,-2.54 7.37,-2.19 12.91,-5.84 16.63,-10.93 3.71,-5.09 5.59,-11.44 5.59,-19.12 0,-7.27 -1.73,-13.67 -5.24,-19.17 -3.45,-5.54 -8.44,-9.35 -14.9,-11.38 -6.45,-2.04 -17.54,-3.05 -33.2,-3.05l-43.67 0 0 66.19zm0 100.97l54.4 0c9.35,0 15.91,-0.36 19.72,-1.07 6.61,-1.17 12.2,-3.15 16.68,-5.95 4.47,-2.8 8.13,-6.86 11.03,-12.2 2.9,-5.34 4.32,-11.49 4.32,-18.45 0,-8.18 -2.08,-15.25 -6.3,-21.3 -4.17,-6.05 -9.96,-10.27 -17.39,-12.71 -7.37,-2.44 -18.05,-3.66 -31.93,-3.66l-50.53 0 0 75.35z"/>
  <path id="5" class="fil2" d="M530.48 1757.92c0,-29.23 8.13,-50.89 24.45,-64.97 13.57,-11.69 30.2,-17.54 49.77,-17.54 21.71,0 39.5,7.12 53.33,21.35 13.78,14.19 20.69,33.86 20.69,58.92 0,20.33 -3.05,36.3 -9.15,47.94 -6.1,11.64 -15,20.69 -26.69,27.15 -11.64,6.45 -24.4,9.66 -38.18,9.66 -22.17,0 -40.06,-7.07 -53.74,-21.25 -13.67,-14.19 -20.48,-34.62 -20.48,-61.27zm27.45 0.05c0,20.24 4.42,35.38 13.27,45.4 8.9,10.07 20.03,15.1 33.5,15.1 13.32,0 24.4,-5.03 33.3,-15.15 8.85,-10.12 13.27,-25.52 13.27,-46.21 0,-19.52 -4.47,-34.31 -13.37,-44.33 -8.9,-10.07 -19.98,-15.1 -33.2,-15.1 -13.47,0 -24.61,4.98 -33.5,14.99 -8.85,10.02 -13.27,25.11 -13.27,45.3z"/>
  <path id="6" class="fil2" d="M700.14 1757.92c0,-29.23 8.13,-50.89 24.45,-64.97 13.57,-11.69 30.2,-17.54 49.77,-17.54 21.71,0 39.5,7.12 53.33,21.35 13.78,14.19 20.69,33.86 20.69,58.92 0,20.33 -3.05,36.3 -9.15,47.94 -6.1,11.64 -15,20.69 -26.69,27.15 -11.64,6.45 -24.4,9.66 -38.18,9.66 -22.17,0 -40.06,-7.07 -53.74,-21.25 -13.67,-14.19 -20.48,-34.62 -20.48,-61.27zm27.45 0.05c0,20.24 4.42,35.38 13.27,45.4 8.9,10.07 20.03,15.1 33.5,15.1 13.32,0 24.4,-5.03 33.3,-15.15 8.85,-10.12 13.27,-25.52 13.27,-46.21 0,-19.52 -4.47,-34.31 -13.37,-44.33 -8.9,-10.07 -19.98,-15.1 -33.2,-15.1 -13.47,0 -24.61,4.98 -33.5,14.99 -8.85,10.02 -13.27,25.11 -13.27,45.3z"/>
  <path id="7" class="fil2" d="M869.18 1789.8l26.54 -4.27c1.47,10.62 5.64,18.76 12.46,24.45 6.81,5.65 16.37,8.49 28.57,8.49 12.36,0 21.5,-2.49 27.51,-7.52 5.95,-4.98 8.94,-10.88 8.94,-17.65 0,-6.05 -2.69,-10.83 -8.03,-14.28 -3.76,-2.39 -12.91,-5.39 -27.45,-9.1 -19.62,-4.93 -33.2,-9.2 -40.83,-12.81 -7.57,-3.66 -13.32,-8.64 -17.23,-15.05 -3.92,-6.35 -5.9,-13.42 -5.9,-21.15 0,-7.06 1.63,-13.57 4.83,-19.57 3.25,-6 7.62,-10.98 13.17,-14.95 4.17,-3.05 9.86,-5.64 17.03,-7.77 7.22,-2.14 14.9,-3.21 23.14,-3.21 12.4,0 23.28,1.78 32.64,5.39 9.41,3.56 16.32,8.44 20.79,14.54 4.42,6.15 7.53,14.34 9.2,24.61l-26.23 3.66c-1.17,-8.24 -4.63,-14.69 -10.32,-19.32 -5.69,-4.63 -13.73,-6.91 -24.15,-6.91 -12.25,0 -21.05,2.03 -26.28,6.1 -5.24,4.07 -7.88,8.85 -7.88,14.28 0,3.45 1.07,6.61 3.26,9.41 2.19,2.85 5.59,5.24 10.27,7.12 2.7,1.02 10.52,3.3 23.64,6.86 18.91,5.03 32.13,9.2 39.65,12.4 7.53,3.21 13.42,7.93 17.69,14.04 4.32,6.15 6.46,13.78 6.46,22.93 0,8.89 -2.59,17.28 -7.83,25.16 -5.24,7.88 -12.76,13.98 -22.57,18.3 -9.86,4.32 -21,6.46 -33.4,6.46 -20.54,0 -36.25,-4.27 -47.03,-12.76 -10.78,-8.54 -17.64,-21.15 -20.64,-37.88z"/>
  <path id="8" class="fil2" d="M1090.63 1813.14l3.66 23.69c-7.53,1.57 -14.28,2.39 -20.18,2.39 -9.71,0 -17.24,-1.52 -22.62,-4.63 -5.34,-3.1 -9.1,-7.12 -11.29,-12.15 -2.19,-5.03 -3.25,-15.61 -3.25,-31.72l0 -91.21 -19.83 0 0 -20.74 19.83 0 0 -39.15 26.84 -16.12 0 55.26 26.84 0 0 20.74 -26.84 0 0 92.73c0,7.68 0.46,12.61 1.42,14.8 0.92,2.19 2.44,3.92 4.58,5.24 2.13,1.27 5.18,1.93 9.15,1.93 2.95,0 6.86,-0.36 11.69,-1.07z"/>
 </g>
</svg>
