<?xml version="1.0" encoding="UTF-8"?>
<!DOCTYPE svg PUBLIC "-//W3C//DTD SVG 1.1//EN" "http://www.w3.org/Graphics/SVG/1.1/DTD/svg11.dtd">
<!-- Creator: CorelDRAW 2019 (64-Bit) -->
<svg xmlns="http://www.w3.org/2000/svg" xml:space="preserve" width="31.3183mm" height="54.3608mm" version="1.1" style="shape-rendering:geometricPrecision; text-rendering:geometricPrecision; image-rendering:optimizeQuality; fill-rule:evenodd; clip-rule:evenodd"
viewBox="0 0 507.94 881.66"
 xmlns:xlink="http://www.w3.org/1999/xlink">
 <defs>
  <style type="text/css">
   <![CDATA[
    .str2 {stroke:black;stroke-width:17.16;stroke-miterlimit:22.9256}
    .str1 {stroke:red;stroke-width:17.16;stroke-miterlimit:22.9256}
    .str0 {stroke:black;stroke-width:3.24;stroke-miterlimit:22.9256}
    .fil3 {fill:none}
    .fil0 {fill:black}
    .fil1 {fill:#E6E6E6}
    .fil2 {fill:black;fill-rule:nonzero}
   ]]>
  </style>
 </defs>
 <g id="Capa_x0020_1">
  <metadata id="CorelCorpID_0Corel-Layer"/>
  <rect class="fil0 str0" transform="matrix(2.64845E-14 -1 0.543444 1.43929E-14 1.62186 183.441)" width="10.73" height="920.81"/>
  <rect class="fil0 str0" x="241.1" y="1.62" width="10.73" height="114.79"/>
  <rect class="fil0 str0" transform="matrix(2.64845E-14 -1 0.543444 1.43929E-14 5.91172 807.09)" width="10.73" height="920.81"/>
  <rect class="fil1 str0" x="42.11" y="41.17" width="419.44" height="838.88"/>
  <path class="fil2" d="M174.98 277.29l0 -9.04c-4.51,7.03 -11.15,10.55 -19.91,10.55 -5.68,0 -10.89,-1.56 -15.63,-4.69 -4.76,-3.11 -8.45,-7.48 -11.08,-13.07 -2.61,-5.61 -3.91,-12.04 -3.91,-19.32 0,-7.09 1.19,-13.52 3.55,-19.32 2.38,-5.77 5.93,-10.21 10.67,-13.27 4.71,-3.09 10.02,-4.62 15.86,-4.62 4.3,0 8.13,0.92 11.47,2.72 3.34,1.81 6.06,4.19 8.17,7.09l0 -35.36 12.08 0 0 98.32 -11.26 0zm-38.17 -35.54c0,9.11 1.92,15.91 5.79,20.42 3.85,4.51 8.4,6.75 13.64,6.75 5.29,0 9.77,-2.15 13.48,-6.45 3.68,-4.3 5.54,-10.87 5.54,-19.71 0,-9.7 -1.88,-16.84 -5.65,-21.4 -3.75,-4.55 -8.4,-6.82 -13.91,-6.82 -5.38,0 -9.86,2.17 -13.48,6.55 -3.59,4.37 -5.4,11.26 -5.4,20.67z"/>
  <path id="1" class="fil2" d="M251.9 277.29l0 -10.6c-5.54,8.08 -13.04,12.11 -22.54,12.11 -4.19,0 -8.1,-0.8 -11.74,-2.4 -3.64,-1.63 -6.34,-3.64 -8.1,-6.07 -1.76,-2.45 -3,-5.42 -3.71,-8.95 -0.48,-2.38 -0.73,-6.13 -0.73,-11.26l0 -44.1 12.08 0 0 39.43c0,6.29 0.25,10.55 0.73,12.73 0.76,3.18 2.36,5.65 4.83,7.46 2.45,1.81 5.47,2.72 9.09,2.72 3.62,0 7,-0.92 10.16,-2.77 3.16,-1.85 5.4,-4.39 6.73,-7.58 1.3,-3.18 1.97,-7.83 1.97,-13.89l0 -38.11 12.08 0 0 71.27 -10.85 0z"/>
  <path id="2" class="fil2" d="M307.95 266.51l1.65 10.66c-3.39,0.71 -6.43,1.08 -9.09,1.08 -4.37,0 -7.76,-0.69 -10.18,-2.08 -2.4,-1.4 -4.1,-3.2 -5.08,-5.47 -0.98,-2.27 -1.46,-7.03 -1.46,-14.28l0 -41.06 -8.93 0 0 -9.34 8.93 0 0 -17.62 12.08 -7.25 0 24.88 12.08 0 0 9.34 -12.08 0 0 41.75c0,3.46 0.21,5.68 0.64,6.66 0.41,0.98 1.1,1.76 2.06,2.36 0.96,0.57 2.33,0.87 4.12,0.87 1.33,0 3.09,-0.16 5.26,-0.48z"/>
  <path id="3" class="fil2" d="M319.33 304.69l-1.37 -11.17c2.66,0.71 4.94,1.08 6.91,1.08 2.7,0 4.85,-0.46 6.46,-1.35 1.62,-0.89 2.95,-2.15 3.98,-3.75 0.76,-1.21 1.99,-4.21 3.68,-9.02 0.23,-0.66 0.57,-1.65 1.08,-2.95l-27.05 -71.5 12.91 0 14.88 41.15c1.94,5.19 3.66,10.69 5.19,16.46 1.4,-5.43 3.04,-10.78 4.97,-16.04l15.2 -41.56 12.06 0 -26.94 72.5c-2.91,7.8 -5.17,13.16 -6.8,16.11 -2.15,3.96 -4.62,6.87 -7.39,8.72 -2.79,1.85 -6.11,2.77 -9.96,2.77 -2.33,0 -4.94,-0.48 -7.8,-1.44z"/>
  <polyline class="fil3 str1" points="106.66,640.56 153.1,544 206.76,483.39 259.54,489.83 307.88,506.38 345.58,520.43 383.02,523.08 "/>
  <polyline class="fil3 str2" points="106.66,436.86 106.66,643.34 391.33,643.34 "/>
 </g>
</svg>
