<?xml version="1.0" encoding="UTF-8"?>
<!DOCTYPE svg PUBLIC "-//W3C//DTD SVG 1.1//EN" "http://www.w3.org/Graphics/SVG/1.1/DTD/svg11.dtd">
<!-- Creator: CorelDRAW 2019 (64-Bit) -->
<svg xmlns="http://www.w3.org/2000/svg" xml:space="preserve" width="35.3925mm" height="25.1709mm" version="1.1" style="shape-rendering:geometricPrecision; text-rendering:geometricPrecision; image-rendering:optimizeQuality; fill-rule:evenodd; clip-rule:evenodd"
viewBox="0 0 5001.99 3557.38"
 xmlns:xlink="http://www.w3.org/1999/xlink">
 <defs>
  <style type="text/css">
   <![CDATA[
    .str3 {stroke:#00CCFF;stroke-width:74.79;stroke-miterlimit:22.9256}
    .str1 {stroke:black;stroke-width:28.27;stroke-miterlimit:22.9256}
    .str0 {stroke:#1A1A1A;stroke-width:28.27;stroke-miterlimit:22.9256}
    .str4 {stroke:red;stroke-width:28.27;stroke-miterlimit:22.9256}
    .str2 {stroke:black;stroke-width:28.27;stroke-linejoin:bevel;stroke-miterlimit:22.9256}
    .fil9 {fill:none}
    .fil1 {fill:#33CC66}
    .fil6 {fill:gray}
    .fil4 {fill:#99FFFF}
    .fil5 {fill:#B3B3B3}
    .fil7 {fill:#CCCCCC}
    .fil3 {fill:#E6E6E6}
    .fil2 {fill:#FF6600}
    .fil0 {fill:white}
    .fil8 {fill:white}
   ]]>
  </style>
 </defs>
 <g id="Capa_x0020_1">
  <metadata id="CorelCorpID_0Corel-Layer"/>
  <path class="fil0 str0" d="M2605.95 295.99l0 -33.68c0,-47.3 38.7,-86 86,-86l0.01 0c47.3,0 86,38.7 86,86l0 119.68c0,47.3 -38.7,86 -86,86l-0.01 0c-1.99,0 -3.96,-0.08 -5.91,-0.21 -2.02,0.14 -4.06,0.23 -6.12,0.23l-622.84 0c-47.29,0 -86,-38.7 -86,-86l0 -0.01c0,-47.3 38.71,-86 86,-86l548.87 0z"/>
  <polygon class="fil1 str1" points="889.62,631.53 3075.72,631.53 3141.95,631.53 3141.95,706.32 3141.95,1917.87 3075.72,1917.87 3075.72,706.32 889.62,706.32 "/>
  <polygon class="fil2 str1" points="2952.88,849.81 2813.81,849.81 1434.27,849.81 1434.27,991.14 2813.81,991.14 2813.81,1724.81 2952.88,1724.81 2952.88,991.14 "/>
  <g id="_2386510470800">
   <polygon class="fil3 str2" points="394.29,160.87 223.71,14.13 1670.99,14.13 2203.39,160.87 "/>
   <polygon class="fil3 str2" points="394.29,3543.25 223.71,2720.04 223.71,14.13 394.29,160.87 "/>
  </g>
  <polygon class="fil3 str1" points="394.29,160.87 2203.39,160.87 2203.39,3543.25 394.29,3543.25 "/>
  <rect class="fil4 str1" x="719.23" y="554.26" width="1159.2" height="665.6"/>
  <rect class="fil5 str1" x="719.24" y="1361.95" width="164.54" height="321.59"/>
  <rect class="fil5 str1" x="1216.56" y="1361.95" width="164.54" height="321.59"/>
  <rect class="fil5 str1" x="1713.9" y="1361.95" width="164.54" height="321.59"/>
  <g id="_2386510473776">
   <polygon class="fil6 str2" points="4532.03,1531.05 2569.39,1531.05 2553.06,1532.35 2536.94,1536.21 2521.06,1542.58 2505.44,1551.38 2490.09,1562.56 2475.03,1576.06 2460.29,1591.8 2445.87,1609.73 2431.81,1629.78 2418.13,1651.9 2404.84,1676.01 2391.97,1702.04 2379.52,1729.95 2367.53,1759.69 2356.01,1791.15 2345,1824.31 2334.49,1859.07 2324.53,1895.41 2315.1,1933.23 2306.25,1972.49 2298,2013.11 2290.35,2055.04 2283.34,2098.22 2277,2142.56 2271.32,2188.03 2266.33,2234.56 2262.04,2282.07 2258.5,2330.5 2255.71,2379.81 2253.69,2429.91 2252.46,2480.77 2252.05,2532.29 2252.46,2583.82 2253.69,2634.66 2255.71,2684.77 2258.5,2734.07 2262.04,2782.52 2266.33,2830.02 2271.32,2876.54 2277,2922.02 2283.34,2966.37 2290.35,3009.55 2298,3051.47 2306.25,3092.1 2315.1,3131.36 2324.53,3169.18 2334.49,3205.5 2345,3240.27 2356.01,3273.42 2367.53,3304.9 2379.52,3334.62 2391.97,3362.55 2404.84,3388.58 2418.13,3412.69 2431.81,3434.81 2445.87,3454.86 2460.29,3472.78 2475.03,3488.53 2490.09,3502.01 2505.44,3513.2 2521.06,3521.99 2536.94,3528.37 2553.06,3532.24 2569.39,3533.54 4532.03,3533.54 4515.71,3532.24 4499.58,3528.37 4483.71,3521.99 4468.08,3513.2 4452.73,3502.01 4437.67,3488.53 4422.92,3472.78 4408.51,3454.86 4394.45,3434.81 4380.77,3412.69 4367.48,3388.58 4354.61,3362.55 4342.17,3334.62 4330.17,3304.9 4318.67,3273.42 4307.64,3240.27 4297.13,3205.5 4287.16,3169.18 4277.74,3131.36 4268.89,3092.1 4260.64,3051.47 4252.99,3009.55 4245.99,2966.37 4239.63,2922.02 4233.95,2876.54 4228.96,2830.02 4224.68,2782.52 4221.14,2734.07 4218.35,2684.77 4216.33,2634.66 4215.1,2583.82 4214.69,2532.29 4215.1,2480.77 4216.33,2429.91 4218.35,2379.81 4221.14,2330.5 4224.68,2282.07 4228.96,2234.56 4233.95,2188.03 4239.63,2142.56 4245.99,2098.22 4252.99,2055.04 4260.64,2013.11 4268.89,1972.49 4277.74,1933.23 4287.16,1895.41 4297.13,1859.07 4307.64,1824.31 4318.67,1791.15 4330.17,1759.69 4342.17,1729.95 4354.61,1702.04 4367.48,1676.01 4380.77,1651.9 4394.45,1629.78 4408.51,1609.73 4422.92,1591.8 4437.67,1576.06 4452.73,1562.56 4468.08,1551.38 4483.71,1542.58 4499.58,1536.21 4515.71,1532.35 "/>
  </g>
  <path class="fil6 str1" d="M4532.03 3533.54c175.26,0 317.34,-448.28 317.34,-1001.25 0,-552.98 -142.08,-1001.25 -317.34,-1001.25 -175.26,0 -317.34,448.27 -317.34,1001.25 0,552.96 142.08,1001.25 317.34,1001.25z"/>
  <g id="_2386510474224">
   <polygon class="fil7 str2" points="4932.05,2245.31 4510.42,2244.82 4507.55,2245.18 4504.71,2246.3 4501.93,2248.12 4499.17,2250.65 4496.47,2253.86 4493.83,2257.73 4491.23,2262.24 4488.7,2267.39 4486.23,2273.14 4483.82,2279.48 4481.48,2286.4 4479.22,2293.87 4477.03,2301.88 4474.92,2310.41 4472.9,2319.44 4470.96,2328.95 4469.11,2338.91 4467.36,2349.34 4465.71,2360.2 4464.15,2371.45 4462.69,2383.11 4461.35,2395.13 4460.12,2407.51 4459.01,2420.25 4458,2433.29 4457.13,2446.63 4456.38,2460.26 4455.76,2474.17 4455.26,2488.3 4454.91,2502.69 4454.68,2517.27 4454.61,2532.04 4454.68,2546.82 4454.91,2561.41 4455.26,2575.79 4455.76,2589.93 4456.38,2603.83 4457.13,2617.46 4458,2630.8 4459.01,2643.84 4460.12,2656.58 4461.35,2668.96 4462.69,2680.99 4464.15,2692.65 4465.71,2703.9 4467.36,2714.75 4469.11,2725.18 4470.96,2735.14 4472.9,2744.65 4474.92,2753.69 4477.03,2762.21 4479.22,2770.22 4481.48,2777.7 4483.82,2784.61 4486.23,2790.95 4488.7,2796.71 4491.23,2801.85 4493.83,2806.36 4496.47,2810.23 4499.17,2813.44 4501.93,2815.97 4504.71,2817.79 4507.55,2818.91 4510.42,2819.28 4932.05,2819.77 4929.18,2819.4 4926.35,2818.29 4923.56,2816.46 4920.81,2813.93 4918.11,2810.73 4915.46,2806.85 4912.87,2802.35 4910.33,2797.2 4907.85,2791.45 4905.45,2785.1 4903.12,2778.18 4900.86,2770.72 4898.67,2762.7 4896.56,2754.18 4894.53,2745.15 4892.59,2735.64 4890.74,2725.66 4888.99,2715.24 4887.33,2704.39 4885.78,2693.13 4884.32,2681.48 4882.98,2669.45 4881.75,2657.06 4880.63,2644.34 4879.63,2631.29 4878.75,2617.95 4878,2604.32 4877.38,2590.42 4876.89,2576.28 4876.53,2561.9 4876.32,2547.32 4876.25,2532.53 4876.32,2517.75 4876.53,2503.17 4876.89,2488.79 4877.38,2474.66 4878,2460.75 4878.75,2447.13 4879.63,2433.79 4880.63,2420.74 4881.75,2408.01 4882.98,2395.63 4884.32,2383.6 4885.78,2371.94 4887.33,2360.68 4888.99,2349.84 4890.74,2339.41 4892.59,2329.44 4894.53,2319.93 4896.56,2310.9 4898.67,2302.37 4900.86,2294.37 4903.12,2286.89 4905.45,2279.98 4907.85,2273.63 4910.33,2267.88 4912.87,2262.74 4915.46,2258.23 4918.11,2254.36 4920.81,2251.15 4923.56,2248.62 4926.35,2246.79 4929.18,2245.68 "/>
  </g>
  <path class="fil7 str1" d="M4932.05 2819.77c30.82,0 55.81,-128.6 55.81,-287.24 0,-158.63 -24.99,-287.22 -55.81,-287.22 -30.81,0 -55.8,128.6 -55.8,287.22 0,158.64 24.99,287.24 55.8,287.24z"/>
  <rect class="fil0 str0" x="14.13" y="2635.64" width="291.68" height="172.01" rx="39.01" ry="86.01"/>
  <rect class="fil0 str0" x="18.03" y="810.73" width="291.68" height="172.01" rx="39.01" ry="86.01"/>
  <g id="_2386510479600">
   <rect class="fil8 str1" x="556.78" y="1931.57" width="1482.87" height="1474.36"/>
   <polyline class="fil9 str3" points="754.34,3274.16 934.31,2846.34 1268.57,2446.52 1589.98,2290.59 1757.1,2274.59 "/>
   <polyline class="fil9 str1" points="822,2125.92 754.34,2026.72 687.57,2124.64 "/>
   <polyline class="fil9 str1" points="1753.63,3211.04 1859.95,3274.16 1754.98,3336.47 "/>
   <polyline class="fil9 str1" points="754.34,2026.72 754.34,3274.16 1859.95,3274.16 "/>
  </g>
  <rect class="fil0 str1" x="2511.22" y="1702.35" width="1626.61" height="1656.53"/>
  <g id="_2386510482320">
   <line class="fil9 str1" x1="2718.04" y1="1762.8" x2="2718.04" y2= "3294.51" />
   <polyline class="fil9 str4" points="3749.59,2657.98 3749.59,2553.38 3556.85,2423.12 3395.33,2308.5 3265.07,2120.94 3181.73,1975.06 2718.04,1975.06 "/>
   <polyline class="fil9 str4" points="3848.61,2657.98 3848.61,2722.55 3637.35,2802.97 3460.35,2873.73 3317.58,2989.52 3226.23,3079.58 2718.04,3079.58 "/>
   <polyline class="fil9 str1" points="2800.28,3165.24 2718.04,3294.51 2636.85,3166.89 "/>
   <polyline class="fil9 str1" points="3926.44,2575.72 4053.93,2657.98 3928.07,2739.16 "/>
   <polyline class="fil9 str1" points="2800.28,1892.07 2718.04,1762.8 2636.85,1890.42 "/>
   <path class="fil9 str1" d="M3233.8 2316.53c3.63,-15.9 -139.58,-224.87 -179.7,-224.15 -123.44,2.2 -148.79,26.5 -166.39,147.53 -17.21,118.41 46.54,33.96 -8.49,142.97 -25.79,51.05 111.88,121.06 172.53,123.03 91.69,2.97 344.28,98.72 379.95,85.73 92.23,-33.59 56.16,-29.59 -2.54,-113.08 -20.59,-29.27 -114.01,-97.91 -154.97,-154.08 -10.5,-14.4 -37.59,-20.15 -40.39,-7.96z"/>
   <path class="fil9 str1" d="M3071.72 2222.25c-109.19,44.42 -63.09,61.29 -5.13,144.42 23.62,33.83 151.49,156.32 92.27,37 -34.89,-70.33 -34.94,-37.04 -40.7,-106.24 -0.07,-0.81 -53.61,-72.28 -46.44,-75.19z"/>
   <path class="fil9 str1" d="M3281.9 2779.32c-59.97,-42.99 -225.12,2.66 -328.39,0 -0.86,-0.03 -213.35,62.3 -137.27,116.19 101.42,71.85 42.67,59.02 179.46,27.94 96.1,-21.85 127.24,123.79 248.61,-47.57 26.98,-38.07 108.43,-73.73 27.33,-116.48 -5,-2.64 -6.35,-0.4 -10.25,2.83"/>
   <path class="fil9 str1" d="M3100.78 2825.44c-176.82,-22.06 -143.82,91.2 37.59,16.27 33,-13.62 -36.15,-16.08 -37.59,-16.27z"/>
   <line class="fil9 str1" x1="2718.01" y1="2657.98" x2="4053.93" y2= "2657.98" />
  </g>
 </g>
</svg>
