<?xml version="1.0" encoding="UTF-8"?>
<!DOCTYPE svg PUBLIC "-//W3C//DTD SVG 1.1//EN" "http://www.w3.org/Graphics/SVG/1.1/DTD/svg11.dtd">
<!-- Creator: CorelDRAW 2019 (64-Bit) -->
<svg xmlns="http://www.w3.org/2000/svg" xml:space="preserve" width="20.9901mm" height="22.6054mm" version="1.1" style="shape-rendering:geometricPrecision; text-rendering:geometricPrecision; image-rendering:optimizeQuality; fill-rule:evenodd; clip-rule:evenodd"
viewBox="0 0 336.76 362.68"
 xmlns:xlink="http://www.w3.org/1999/xlink">
 <defs>
  <style type="text/css">
   <![CDATA[
    .str2 {stroke:red;stroke-width:11.32;stroke-miterlimit:22.9256}
    .str1 {stroke:black;stroke-width:3.21;stroke-miterlimit:22.9256}
    .str0 {stroke:black;stroke-width:3.21;stroke-miterlimit:22.9256}
    .fil1 {fill:none}
    .fil2 {fill:black}
    .fil0 {fill:#CCCCCC}
   ]]>
  </style>
 </defs>
 <g id="Capa_x0020_1">
  <metadata id="CorelCorpID_0Corel-Layer"/>
  <path class="fil0 str0" d="M133.94 54.85c79.23,-21.23 160.66,25.79 181.89,105.01 21.23,79.23 -25.79,160.66 -105.01,181.89 -79.23,21.23 -160.66,-25.79 -181.89,-105.01 -21.23,-79.23 25.79,-160.66 105.01,-181.89zm-3.68 -13.74c86.82,-23.26 176.05,28.26 199.31,115.07 23.26,86.82 -28.26,176.05 -115.07,199.31 -86.82,23.26 -176.05,-28.26 -199.31,-115.07 -23.26,-86.82 28.26,-176.05 115.07,-199.31z"/>
  <polyline class="fil1 str1" points="26.88,168.47 172.38,198.3 40.01,130.87 "/>
  <polyline class="fil1 str1" points="31.46,245.22 172.38,198.3 24.04,206.09 "/>
  <polyline class="fil1 str1" points="73.8,309.39 172.38,198.3 47.81,279.22 "/>
  <polyline class="fil1 str1" points="142.56,343.8 172.38,198.3 104.95,330.67 "/>
  <polyline class="fil1 str1" points="219.3,339.22 172.38,198.3 180.17,346.64 "/>
  <polyline class="fil1 str1" points="283.48,296.88 172.38,198.3 253.3,322.87 "/>
  <polyline class="fil1 str1" points="317.88,228.12 172.38,198.3 304.75,265.72 "/>
  <polyline class="fil1 str1" points="313.3,151.38 172.38,198.3 320.73,190.51 "/>
  <polyline class="fil1 str1" points="270.96,87.2 172.38,198.3 296.96,117.38 "/>
  <polyline class="fil1 str1" points="202.21,52.8 172.38,198.3 239.81,65.93 "/>
  <polyline class="fil1 str1" points="125.46,57.38 172.38,198.3 164.59,49.95 "/>
  <polyline class="fil1 str1" points="61.29,99.72 172.38,198.3 91.46,73.72 "/>
  <circle class="fil0 str0" transform="matrix(0.273978 -0.0734122 0.0734122 0.273978 172.382 198.297)" r="199.8"/>
  <path class="fil1 str2" d="M228.98 195.33c1.4,26.72 -16.08,50.79 -41.93,57.71 -28.97,7.76 -58.97,-8.39 -68.44,-36.84"/>
  <circle class="fil2 str1" transform="matrix(0.0821136 -0.0220023 0.0220023 0.0821136 172.383 198.298)" r="199.8"/>
  <line class="fil1 str2" x1="9.04" y1="61.49" x2="118.61" y2= "216.2" />
  <line class="fil1 str2" x1="228.99" y1="195.32" x2="231.19" y2= "2.06" />
  <polyline class="fil1 str2" points="14.7,82.71 9.04,61.49 24.6,70.69 "/>
  <line class="fil1 str1" x1="197.48" y1="1.6" x2="264.89" y2= "2.51" />
 </g>
</svg>
