<?xml version="1.0" encoding="UTF-8"?>
<!DOCTYPE svg PUBLIC "-//W3C//DTD SVG 1.1//EN" "http://www.w3.org/Graphics/SVG/1.1/DTD/svg11.dtd">
<!-- Creator: CorelDRAW 2019 (64-Bit) -->
<svg xmlns="http://www.w3.org/2000/svg" xml:space="preserve" width="28.1448mm" height="25.5916mm" version="1.1" style="shape-rendering:geometricPrecision; text-rendering:geometricPrecision; image-rendering:optimizeQuality; fill-rule:evenodd; clip-rule:evenodd"
viewBox="0 0 1134.25 1031.35"
 xmlns:xlink="http://www.w3.org/1999/xlink">
 <defs>
  <style type="text/css">
   <![CDATA[
    .str3 {stroke:black;stroke-width:8.06;stroke-miterlimit:22.9256}
    .str2 {stroke:black;stroke-width:8.06;stroke-miterlimit:22.9256}
    .str0 {stroke:blue;stroke-width:8.06;stroke-miterlimit:22.9256}
    .str1 {stroke:#CCCCCC;stroke-width:8.06;stroke-miterlimit:22.9256}
    .fil3 {fill:none}
    .fil1 {fill:black}
    .fil0 {fill:aqua}
    .fil2 {fill:#CCCCCC}
   ]]>
  </style>
 </defs>
 <g id="Capa_x0020_1">
  <metadata id="CorelCorpID_0Corel-Layer"/>
  <path class="fil0 str0" d="M24.99 999.17l1102.53 0c-4.43,8.28 -58.06,11.26 -71.9,7.46 -46.72,-12.8 -35.85,-3.91 -82.56,0.33 -91.06,8.27 -114.07,-16.91 -157.13,-15.56 -18.51,0.58 -73.04,-18.51 -79.89,-16.23 -64.87,21.65 -68.55,16.93 -130.26,10.16 -46.58,-5.11 -60.74,8.85 -114.74,13.76 -48.16,4.37 -111.59,-2.04 -117.18,-1.29 -53.37,7.11 -135.92,-17.38 -149.14,-13.76 -60.04,16.45 -56.56,-7.5 -85.45,9.15 -67.74,39.04 -15,-26.92 -114.28,5.96z"/>
  <path class="fil1 str1" d="M446.47 21.23c267.74,-71.74 542.95,87.15 614.69,354.89 71.74,267.74 -87.15,542.95 -354.89,614.69 -267.74,71.74 -542.94,-87.15 -614.69,-354.89 -71.74,-267.74 87.15,-542.94 354.89,-614.69zm26.86 100.21c212.39,-56.91 430.71,69.14 487.62,281.54 56.91,212.4 -69.13,430.71 -281.54,487.62 -212.39,56.91 -430.71,-69.13 -487.62,-281.54 -56.91,-212.39 69.14,-430.71 281.54,-487.62z"/>
  <path class="fil0 str0" d="M24.99 1017.87l1102.53 0c-4.43,8.28 -58.06,11.26 -71.9,7.46 -46.72,-12.8 -35.85,-3.91 -82.56,0.33 -91.06,8.27 -114.07,-16.91 -157.13,-15.56 -18.51,0.58 -73.04,-18.51 -79.89,-16.23 -64.87,21.65 -68.55,16.93 -130.26,10.16 -46.58,-5.11 -60.74,8.85 -114.74,13.76 -48.16,4.37 -111.59,-2.04 -117.18,-1.29 -53.37,7.11 -135.92,-17.38 -149.14,-13.76 -60.04,16.45 -56.56,-7.5 -85.45,9.15 -67.74,39.04 -15,-26.92 -114.28,5.96z"/>
  <g id="_2605994170384">
   <path class="fil2 str2" d="M479.82 145.68c199.01,-53.32 403.56,64.77 456.89,263.78 53.33,199.01 -64.77,403.56 -263.78,456.89 -199.01,53.33 -403.56,-64.77 -456.89,-263.78 -53.32,-199.01 64.77,-403.56 263.78,-456.89zm-9.25 -34.52c218.07,-58.44 442.23,70.98 500.66,289.06 58.44,218.08 -70.98,442.23 -289.06,500.66 -218.08,58.44 -442.23,-70.98 -500.66,-289.06 -58.44,-218.08 70.98,-442.23 289.06,-500.66z"/>
   <polyline class="fil3 str3" points="210.88,431.1 576.37,506.02 243.87,336.65 "/>
   <polyline class="fil3 str3" points="222.39,623.88 576.37,506.02 203.73,525.59 "/>
   <polyline class="fil3 str3" points="328.74,785.08 576.37,506.02 263.44,709.28 "/>
   <polyline class="fil3 str3" points="501.45,871.51 576.37,506.02 407,838.52 "/>
   <polyline class="fil3 str3" points="694.23,860 576.37,506.02 595.94,878.65 "/>
   <polyline class="fil3 str3" points="855.43,753.64 576.37,506.02 779.64,818.94 "/>
   <polyline class="fil3 str3" points="941.86,580.94 576.37,506.02 908.87,675.39 "/>
   <polyline class="fil3 str3" points="930.35,388.15 576.37,506.02 949,486.45 "/>
   <polyline class="fil3 str3" points="824,226.96 576.37,506.02 889.3,302.75 "/>
   <polyline class="fil3 str3" points="651.29,140.53 576.37,506.02 745.74,173.52 "/>
   <polyline class="fil3 str3" points="458.51,152.04 576.37,506.02 556.8,133.38 "/>
   <polyline class="fil3 str3" points="297.31,258.39 576.37,506.02 373.11,193.09 "/>
   <circle class="fil2 str2" transform="matrix(0.273978 -0.0734122 0.0734122 0.273978 576.368 506.016)" r="501.89"/>
   <circle class="fil1 str3" transform="matrix(0.0821136 -0.0220023 0.0220023 0.0821136 576.37 506.018)" r="501.89"/>
  </g>
 </g>
</svg>
