<?xml version="1.0" encoding="UTF-8"?>
<!DOCTYPE svg PUBLIC "-//W3C//DTD SVG 1.1//EN" "http://www.w3.org/Graphics/SVG/1.1/DTD/svg11.dtd">
<!-- Creator: CorelDRAW 2019 (64-Bit) -->
<svg xmlns="http://www.w3.org/2000/svg" xml:space="preserve" width="105.493mm" height="58.5239mm" version="1.1" style="shape-rendering:geometricPrecision; text-rendering:geometricPrecision; image-rendering:optimizeQuality; fill-rule:evenodd; clip-rule:evenodd"
viewBox="0 0 6033.85 3347.38"
 xmlns:xlink="http://www.w3.org/1999/xlink">
 <defs>
  <style type="text/css">
   <![CDATA[
    .str0 {stroke:black;stroke-width:40.36;stroke-miterlimit:22.9256}
    .str2 {stroke:black;stroke-width:11.44;stroke-miterlimit:22.9256}
    .str1 {stroke:#CCCCCC;stroke-width:30.27;stroke-miterlimit:22.9256;stroke-dasharray:302.685244 90.805573}
    .fil0 {fill:none}
    .fil1 {fill:black}
    .fil2 {fill:black;fill-rule:nonzero}
    .fil3 {fill:blue;fill-rule:nonzero}
    .fil4 {fill:#663333;fill-rule:nonzero}
   ]]>
  </style>
 </defs>
 <g id="Capa_x0020_1">
  <metadata id="CorelCorpID_0Corel-Layer"/>
  <rect class="fil0 str0" transform="matrix(0.965926 -0.258819 0.258819 0.965926 493.109 2564.09)" width="5240.58" height="228.96"/>
  <circle class="fil0 str1" transform="matrix(0.965926 -0.258819 0.258819 0.965926 727.518 2619.79)" r="712.31"/>
  <circle class="fil1 str2" transform="matrix(0.110475 -0.0296016 0.0296016 0.110475 727.521 2619.8)" r="712.31"/>
  <circle class="fil1 str2" transform="matrix(0.110475 -0.0296016 0.0296016 0.110475 5306.27 1392.92)" r="712.31"/>
  <circle class="fil0 str1" transform="matrix(0.965926 -0.258819 0.258819 0.965926 5306.26 1392.92)" r="712.31"/>
  <g id="_2606133849328">
   <circle class="fil0 str2" transform="matrix(0.965926 -0.258819 0.258819 0.965926 2758.38 894.145)" r="169.59"/>
   <path class="fil1" d="M2758.38 894.15l-43.89 -163.82c90.47,-24.24 183.47,29.45 207.71,119.92l-163.82 43.89z"/>
   <path class="fil1" d="M2758.38 894.15l43.9 163.82c-90.47,24.24 -183.47,-29.45 -207.71,-119.92l163.81 -43.89z"/>
   <g>
    <path class="fil2" d="M2072.3 1062.32l682.16 -182.79 7.84 29.24 -682.16 182.79 -7.84 -29.24zm-165.71 60.07l155 -137.48 47.96 178.99 -202.96 -41.51z"/>
   </g>
   <g>
    <path class="fil2" d="M3134.44 809.05l-372.14 99.72 -7.84 -29.24 372.14 -99.72 7.84 29.24zm165.71 -60.07l-155 137.48 -47.96 -178.99 202.96 41.51z"/>
   </g>
  </g>
  <g>
   <path class="fil2" d="M2738.2 1686.74l0 -792.59 40.36 0 0 792.59 -40.36 0zm20.18 234.15l-123.57 -247.07 247.07 0 -123.49 247.07z"/>
  </g>
  <line class="fil0 str2" x1="727.52" y1="2619.78" x2="4037.82" y2= "2619.78" />
  <polygon class="fil3" points="1705.58,957.19 1536.08,644.04 1605.26,625.55 1717.28,841.78 1716.8,595.61 1797.19,574.14 1918.41,792.06 1907.11,544.6 1975.15,526.44 1983.54,882.69 1911.88,901.91 1778.21,669.62 1778.86,937.5 "/>
  <path id="1" class="fil3" d="M2321.41 792.17l-59.56 15.98 -9.53 -35.59c-6.13,16.47 -15.09,29.87 -26.71,40.28 -11.62,10.33 -24.3,17.35 -38.02,21.06 -27.84,7.43 -54.72,2.59 -80.55,-14.52 -25.9,-17.11 -44.14,-45.76 -54.96,-85.88 -10.98,-41.08 -9.68,-74.9 3.87,-101.45 13.64,-26.56 35.19,-43.74 64.65,-51.65 27.12,-7.27 53.59,-2.35 79.34,14.93l-32.28 -120.5 64.16 -17.19 89.59 334.56zm-205.01 -80.56c6.94,25.83 15.5,43.59 25.75,53.27 14.85,13.97 31.56,18.41 50.12,13.48 14.77,-3.95 25.58,-13.64 32.61,-28.97 6.94,-15.25 7.1,-35.44 0.4,-60.38 -7.42,-27.84 -17.83,-46.57 -31.15,-56.09 -13.32,-9.52 -27.77,-12.27 -43.5,-8.07 -15.17,4.11 -26.31,13.56 -33.33,28.4 -7.02,14.86 -7.34,34.31 -0.89,58.36z"/>
  <path class="fil2" d="M2921.35 1251.04l61.02 0 0 34.3c21.88,-26.39 47.94,-39.63 78.21,-39.63 16.06,0 30.02,3.31 41.81,9.93 11.86,6.62 21.55,16.63 29.06,30.03 11.06,-13.4 23,-23.41 35.75,-30.03 12.75,-6.62 26.39,-9.93 40.92,-9.93 18.41,0 33.98,3.72 46.82,11.22 12.75,7.5 22.27,18.48 28.57,33.01 4.6,10.66 6.86,28.01 6.86,51.98l0 160.45 -66.35 0 0 -143.43c0,-24.94 -2.26,-41 -6.86,-48.18 -6.14,-9.44 -15.66,-14.2 -28.41,-14.2 -9.28,0 -18.08,2.82 -26.32,8.47 -8.15,5.73 -14.12,14.05 -17.75,24.94 -3.63,10.98 -5.41,28.24 -5.41,51.89l0 120.5 -66.35 0 0 -137.53c0,-24.38 -1.21,-40.2 -3.55,-47.22 -2.34,-7.1 -5.97,-12.43 -10.98,-15.9 -4.92,-3.47 -11.7,-5.16 -20.18,-5.16 -10.25,0 -19.45,2.74 -27.6,8.23 -8.23,5.57 -14.04,13.48 -17.59,23.89 -3.55,10.41 -5.33,27.68 -5.33,51.73l0 121.95 -66.35 0 0 -251.33z"/>
  <path id="1" class="fil2" d="M3350.49 1518.35l76.03 9.2c1.29,8.96 4.2,15.09 8.72,18.48 6.38,4.76 16.31,7.18 29.86,7.18 17.35,0 30.35,-2.59 39.07,-7.83 5.81,-3.47 10.25,-9.04 13.24,-16.79 2.02,-5.49 3.07,-15.74 3.07,-30.51l0.33 -36.72c-20.02,27.36 -45.2,41 -75.55,41 -33.74,0 -60.54,-14.29 -80.23,-42.78 -15.49,-22.52 -23.24,-50.61 -23.24,-84.1 0,-42.13 10.17,-74.25 30.43,-96.45 20.26,-22.19 45.52,-33.33 75.71,-33.33 31.07,0 56.74,13.64 76.91,40.92l0 -35.59 61.99 0 0 225.34c0,29.62 -2.42,51.82 -7.34,66.43 -4.84,14.69 -11.7,26.15 -20.59,34.54 -8.8,8.32 -20.58,14.93 -35.35,19.61 -14.77,4.76 -33.41,7.1 -55.93,7.1 -42.62,0 -72.81,-7.34 -90.64,-21.95 -17.84,-14.69 -26.72,-33.17 -26.72,-55.69 0,-2.18 0.08,-4.92 0.24,-8.07zm59.56 -146.73c0,26.64 5.17,46.08 15.42,58.43 10.33,12.35 23.08,18.57 38.17,18.57 16.14,0 29.86,-6.38 41,-19.05 11.22,-12.67 16.79,-31.4 16.79,-56.26 0,-25.99 -5.33,-45.28 -16.06,-57.87 -10.66,-12.59 -24.22,-18.89 -40.6,-18.89 -15.9,0 -28.98,6.21 -39.31,18.56 -10.25,12.35 -15.42,31.16 -15.42,56.5z"/>
  <path class="fil4" d="M3072.43 377.24l59.08 -15.82 8.88 33.09c14.21,-31.4 36,-51.01 65.22,-58.83 15.49,-4.12 29.78,-4.52 42.94,-1.21 13.08,3.31 25.02,10.49 35.84,21.47 7.18,-15.82 16.06,-28.57 26.64,-38.25 10.65,-9.69 22.92,-16.39 36.97,-20.1 17.75,-4.76 33.81,-5.24 48.02,-1.29 14.29,3.95 26.32,12.02 36.16,24.45 7.19,9.12 13.89,25.26 20.1,48.42l41.48 154.89 -64.08 17.19 -37.13 -138.5c-6.46,-24.05 -12.83,-38.99 -19.13,-44.8 -8.32,-7.5 -18.73,-9.6 -31,-6.29 -8.95,2.34 -16.7,7.34 -23.16,14.93 -6.46,7.66 -10.01,17.19 -10.65,28.74 -0.65,11.46 2.09,28.65 8.15,51.41l31.23 116.38 -64.16 17.19 -35.59 -132.77c-6.3,-23.57 -11.54,-38.5 -15.66,-44.72 -4.11,-6.22 -8.96,-10.42 -14.69,-12.43 -5.65,-2.1 -12.59,-2.02 -20.82,0.16 -9.93,2.67 -18.08,7.67 -24.54,15.17 -6.54,7.42 -10.09,16.63 -10.82,27.6 -0.81,10.9 2.02,28.01 8.24,51.34l31.55 117.76 -64.16 17.19 -64.89 -242.37z"/>
  <path id="1" class="fil4" d="M3560.83 325.59l-61.02 5.08c0.33,-25.18 6.94,-45.52 19.86,-61.02 13,-15.57 35.19,-27.52 66.67,-35.99 28.65,-7.67 50.85,-10.01 66.67,-6.94 15.74,2.99 27.92,8.96 36.4,17.84 8.55,8.87 16.46,27.28 23.97,55.12l19.37 74.98c5.65,21.31 10.9,36.72 15.66,46.33 4.76,9.52 11.54,19.37 20.26,29.38l-63.44 17.03c-2.83,-3.79 -6.54,-9.6 -11.22,-17.27 -2.1,-3.55 -3.55,-5.81 -4.28,-6.94 -8.15,13.56 -17.67,24.7 -28.73,33.42 -11.06,8.63 -23.65,14.84 -37.78,18.64 -25.02,6.7 -46.49,5.17 -64.48,-4.52 -18,-9.69 -29.79,-24.86 -35.27,-45.52 -3.72,-13.72 -3.72,-26.8 0,-39.23 3.63,-12.51 10.56,-23.16 20.9,-32.05 10.25,-8.87 25.91,-18.4 46.97,-28.65 28.41,-13.64 47.78,-24.46 58.04,-32.37l-1.7 -6.45c-3.31,-12.27 -8.72,-20.25 -16.14,-23.89 -7.5,-3.63 -19.7,-3.15 -36.57,1.37 -11.46,3.07 -19.77,7.67 -24.94,13.88 -5.16,6.21 -8.23,15.41 -9.2,27.76zm99.76 29.06c-7.5,4.92 -19.61,11.7 -36.4,20.26 -16.79,8.56 -27.44,15.42 -31.88,20.5 -6.78,8.24 -8.96,16.87 -6.54,26 2.42,8.95 7.83,15.81 16.31,20.57 8.39,4.76 17.83,5.73 28.16,2.99 11.54,-3.15 21.55,-9.85 30.03,-20.26 6.21,-7.9 9.44,-16.3 9.6,-25.34 0.25,-5.98 -1.77,-16.54 -5.89,-31.96l-3.39 -12.75z"/>
  <path class="fil2" d="M3084.23 2406.81c0,-44.02 8.92,-77.98 26.81,-101.76 13.55,-17.89 29.73,-26.81 48.65,-26.81 18.29,0 33.96,8.58 46.94,25.78 18.12,24.07 27.16,56.72 27.16,98.1 0,39.33 -8.87,70.38 -26.64,93.19 -13.89,17.66 -30.19,26.47 -48.99,26.47 -10.18,0 -19.44,-2.46 -27.79,-7.38 -8.4,-4.91 -15.84,-12.01 -22.35,-21.27 -6.46,-9.32 -11.43,-19.16 -14.92,-29.5 -5.89,-17.89 -8.86,-36.82 -8.86,-56.82zm117.31 -12.29c-0.11,-28.99 -2.92,-52.25 -8.4,-69.8 -4.29,-13.44 -9.95,-23.04 -16.98,-28.82 -5.14,-4.23 -11.09,-6.34 -17.83,-6.34 -7.61,0 -14.64,2.91 -20.99,8.8 -6.4,5.89 -11.26,15.72 -14.57,29.5 -3.32,13.78 -5.49,36.02 -6.63,66.66l85.41 0zm-85.41 11.32c0.46,19.95 1.94,37.85 4.52,53.74 1.94,12.06 5.26,22.64 9.95,31.56 2.8,5.38 6.86,9.95 12.29,13.72 5.38,3.72 11.15,5.61 17.27,5.61 7.2,0 14,-3.37 20.47,-10.07 6.4,-6.74 11.32,-17.55 14.64,-32.41 3.25,-14.92 5.26,-35.62 5.94,-62.14l-85.07 0z"/>
  <g>
   <path class="fil2" d="M4547.79 420.59l-1787.94 479.08 -2.96 -11.05 1787.94 -479.08 2.96 11.05zm21.31 -2.8l-15.11 -13.62 4.42 16.48 -90.99 -29.48 6.27 -19.35 90.99 29.48 4.42 16.48zm0 0l-4.42 -16.48 14.92 4.83 -10.5 11.65zm-71.6 64.26l-7.56 -6.81 64.05 -71.07 15.11 13.62 -64.04 71.07 -7.56 -6.81z"/>
  </g>
  <path class="fil2" d="M4501.3 270.73l-155.27 -212.33 33.96 -9.15 107.71 155.67c8.63,12.46 16.24,24.3 22.81,35.44 0.17,-13.89 0.97,-28.01 2.4,-42.19l17.83 -189.29 32.02 -8.58 -29.27 261.78 -32.19 8.64z"/>
  <polygon id="1" class="fil2" points="4701.72,175.95 4684.28,111.01 4619.79,128.27 4612.54,101.12 4677.02,83.85 4659.76,19.36 4687.2,11.99 4704.52,76.48 4769.01,59.22 4776.27,86.37 4711.78,103.63 4729.16,168.64 "/>
  <path class="fil0 str2" d="M2837.97 2167.38c31.88,148.69 47.95,300.33 47.95,452.41"/>
 </g>
</svg>
